<svg id="Layer_1" data-name="Layer 1" xmlns="http://www.w3.org/2000/svg" viewBox="0 0 183.6 31"><defs><style>.cls-1{fill:#fff;}.cls-1,.cls-2{fill-rule:evenodd;}.cls-2{fill:#f1bc1c;}.cls-3{fill:none;stroke:#efbb1b;stroke-width:0.25px;}</style></defs><title>Artboard 1</title><g id="Page-1"><g id="sprite"><g id="logo"><path id="Fill-1" class="cls-1" d="M85.6,30.5,77.1,18.8a9.25,9.25,0,0,0,5.4-8.6A9.56,9.56,0,0,0,72.8.6h-16V30.4h6.6V19.8h6.2l7.7,10.7ZM75.7,10.3a4.19,4.19,0,0,1-4.2,4.3H63.4V6.1h8.1a4.1,4.1,0,0,1,4.2,4.2ZM94.7.7H88.1V30.5h6.6Zm28.9,5.9V.7h-26V6.6h9.7v24h6.6V6.6Zm29.4,9a15.05,15.05,0,1,0-30.1,0,15.05,15.05,0,1,0,30.1,0Zm-6.6,0c0,5.4-3.1,9.4-8.4,9.4s-8.4-4-8.4-9.4,3-9.4,8.4-9.4,8.4,4,8.4,9.4Zm37.2,14.9V.7H177V20.4L162.8.7h-6.5V30.5h6.6V10.8l14.3,19.7Z"/><polygon id="Fill-3" class="cls-1" points="28.2 0.7 28.2 6.6 37.9 6.6 37.9 30.5 44.5 30.5 44.5 6.6 54.2 6.6 54.2 0.7 28.2 0.7"/><polygon id="Fill-4" class="cls-2" points="11.2 30.6 17.5 30.6 29.7 15.7 26.5 11.8 11.2 30.6"/><polygon id="Stroke-5" class="cls-3" points="26.5 11.8 11.2 30.6 17.5 30.6 29.7 15.7 26.5 11.8"/><polygon id="Fill-6" class="cls-2" points="0.2 30.6 6.5 30.6 18.6 15.7 15.5 11.8 0.2 30.6"/><polygon id="Stroke-7" class="cls-3" points="15.5 11.8 0.2 30.6 6.5 30.6 18.6 15.7 15.5 11.8"/><polygon id="Fill-9" class="cls-2" points="26.5 19.5 11.2 0.8 17.5 0.7 29.7 15.7 26.5 19.5"/><polygon id="Stroke-10" class="cls-3" points="26.5 19.5 11.2 0.8 17.5 0.7 29.7 15.7 26.5 19.5"/><polygon id="Fill-11" class="cls-2" points="0.2 0.8 15.5 19.5 18.6 15.7 6.5 0.7 0.2 0.8"/><polygon id="Stroke-12" class="cls-3" points="15.5 19.5 0.2 0.8 6.5 0.7 18.6 15.7 15.5 19.5"/></g></g></g></svg>