<?xml version="1.0" encoding="utf-8"?>
<!-- Generator: Adobe Illustrator 18.0.0, SVG Export Plug-In . SVG Version: 6.00 Build 0)  -->
<!DOCTYPE svg PUBLIC "-//W3C//DTD SVG 1.1//EN" "http://www.w3.org/Graphics/SVG/1.1/DTD/svg11.dtd">
<svg version="1.1" id="Layer_1" xmlns="http://www.w3.org/2000/svg" xmlns:xlink="http://www.w3.org/1999/xlink" x="0px" y="0px"
	 viewBox="0 0 200 220" enable-background="new 0 0 200 220" xml:space="preserve">
<path id="Sandcastle_4_" fill="#FFFFFF" d="M199.6,204.4c-1.2,2.3-3.7,3.7-6.3,3.2c-6.7-1.1-21.7-3.1-46.5-3.1
	c-35.4,0-58,11.7-93.6,11.7c-26.3,0-41.4-4.2-47.5-6.5c-2-0.7-3.6-2.2-4.6-4.1c-1.5-2.9-1.1-6.4,1-8.9c23-27.6,20.2-75.2,31-133.4
	c0.3-1.9,2-3.2,3.9-3.2h16.7c2,0,3.6,1.5,3.9,3.4l1.1,8.8c0.2,2,1.9,3.4,3.9,3.4h15c1.8,0,3.4-1.2,3.8-3l2.4-9.7c0.4-1.7,2-3,3.8-3
	h25.1c1.8,0,3.4,1.2,3.8,3l2.4,9.7c0.4,1.7,2,3,3.8,3h15c2,0,3.6-1.5,3.9-3.4l1.1-8.8c0.2-2,1.9-3.4,3.9-3.4h16.7
	c1.9,0,3.5,1.4,3.9,3.2c10.9,58.7,7.9,106.8,31.7,134.2C200.3,199.5,200.7,202.1,199.6,204.4L199.6,204.4z M29.8,181.1
	c-2.2,0-3.9,1.7-3.9,3.9c0,2.2,1.7,3.9,3.9,3.9c2.2,0,3.9-1.7,3.9-3.9C33.7,182.9,31.9,181.1,29.8,181.1z M49.3,169.4
	c-2.2,0-3.9,1.7-3.9,3.9c0,2.2,1.7,3.9,3.9,3.9c2.2,0,3.9-1.7,3.9-3.9C53.2,171.2,51.4,169.4,49.3,169.4z M47.3,188.9
	c-3.2,0-5.9,2.6-5.9,5.9s2.6,5.9,5.9,5.9s5.9-2.6,5.9-5.9S50.6,188.9,47.3,188.9z M168.3,184.7c-7.1-43-13.4-66-33.2-66
	c-20.3,0-26.6,24.4-27.2,69.5c0,2.4,2.2,4.3,4.5,3.9c10.4-1.8,21.6-3.2,34.4-3.2c6.5,0,12.3,0.1,17.5,0.3
	C166.8,189.4,168.7,187.2,168.3,184.7z M145.2,32.4c0.7,0.9,0.3,2.2-0.9,2.4c-13.4,2.3-27,2.5-40.4,0.7V51c0,0.8-0.6,1.4-1.4,1.4
	h-4.9c-0.8,0-1.4-0.6-1.4-1.4V7.5c0-1.2,1.1-2.1,2.3-1.9c15,2.6,30.2,2.7,45.2,0.2c1.2-0.2,2.1,1.1,1.4,2.2
	c-3.1,4.7-6.2,8.1-9.2,12.6c-0.4,0.5-0.3,1.2,0.1,1.7C139,26.3,142.1,28.8,145.2,32.4z"/>
</svg>
